<svg width="323" height="153" viewBox="0 0 323 153" fill="none" xmlns="http://www.w3.org/2000/svg">
<path d="M21.46 48.6133L15.7471 54.7656V70H4.76074V16.6797H15.7471V40.8496L20.5811 34.2212L34.1675 16.6797H47.6807L28.7476 40.3735L48.23 70H35.1562L21.46 48.6133ZM94.9951 44.5483C94.9951 49.7974 94.0674 54.3994 92.2119 58.3545C90.3564 62.3096 87.6953 65.3613 84.2285 67.5098C80.7861 69.6582 76.8311 70.7324 72.3633 70.7324C67.9443 70.7324 64.0015 69.6704 60.5347 67.5464C57.0679 65.4224 54.3823 62.395 52.478 58.4644C50.5737 54.5093 49.6094 49.9683 49.585 44.8413V42.2046C49.585 36.9556 50.5249 32.3413 52.4048 28.3618C54.3091 24.3579 56.9824 21.2939 60.4248 19.1699C63.8916 17.0215 67.8467 15.9473 72.29 15.9473C76.7334 15.9473 80.6763 17.0215 84.1187 19.1699C87.5854 21.2939 90.2588 24.3579 92.1387 28.3618C94.043 32.3413 94.9951 36.9434 94.9951 42.168V44.5483ZM83.8623 42.1313C83.8623 36.5405 82.8613 32.2925 80.8594 29.3872C78.8574 26.4819 76.001 25.0293 72.29 25.0293C68.6035 25.0293 65.7593 26.4697 63.7573 29.3506C61.7554 32.207 60.7422 36.4062 60.7178 41.9482V44.5483C60.7178 49.9927 61.7188 54.2163 63.7207 57.2192C65.7227 60.2222 68.6035 61.7236 72.3633 61.7236C76.0498 61.7236 78.8818 60.2832 80.8594 57.4023C82.8369 54.4971 83.8379 50.2734 83.8623 44.7314V42.1313ZM122.717 50.481H113.965V70H102.979V16.6797H122.791C129.089 16.6797 133.948 18.0835 137.366 20.8911C140.784 23.6987 142.493 27.666 142.493 32.793C142.493 36.4307 141.699 39.4702 140.112 41.9116C138.55 44.3286 136.169 46.2573 132.971 47.6978L144.507 69.4873V70H132.715L122.717 50.481ZM113.965 41.582H122.827C125.586 41.582 127.722 40.8862 129.236 39.4946C130.75 38.0786 131.506 36.1377 131.506 33.6719C131.506 31.1572 130.786 29.1797 129.346 27.7393C127.93 26.2988 125.745 25.5786 122.791 25.5786H113.965V41.582ZM192.737 52.2388C192.322 57.9761 190.198 62.4927 186.365 65.7886C182.556 69.0845 177.527 70.7324 171.277 70.7324C164.441 70.7324 159.058 68.4375 155.127 63.8477C151.221 59.2334 149.268 52.9102 149.268 44.8779V41.6187C149.268 36.4917 150.171 31.9751 151.978 28.0688C153.784 24.1626 156.36 21.1719 159.705 19.0967C163.074 16.9971 166.98 15.9473 171.423 15.9473C177.576 15.9473 182.532 17.5952 186.292 20.8911C190.051 24.187 192.224 28.8135 192.81 34.7705H181.824C181.555 31.3281 180.591 28.8379 178.931 27.2998C177.295 25.7373 174.792 24.9561 171.423 24.9561C167.761 24.9561 165.015 26.2744 163.184 28.9111C161.377 31.5234 160.449 35.5884 160.4 41.106V45.1343C160.4 50.896 161.267 55.1074 163 57.7686C164.758 60.4297 167.517 61.7603 171.277 61.7603C174.67 61.7603 177.197 60.9912 178.857 59.4531C180.542 57.8906 181.506 55.4858 181.75 52.2388H192.737ZM243.347 70H232.361V47.1484H210.938V70H199.951V16.6797H210.938V38.2861H232.361V16.6797H243.347V70ZM264.661 70H253.674V16.6797H264.661V70Z" transform="translate(0 32)" fill="black"/>
<path d="M295.166 34.3311L306.372 16.6797H321.24L302.271 43.6328L312.708 70H298.828L292.969 52.019L281.47 70H266.492L285.901 42.6074L275.793 16.6797H289.526L295.166 34.3311Z" transform="translate(0 32)" fill="#DF0303"/>
</svg>
