<svg width="335" height="165" viewBox="0 0 335 165" fill="none" xmlns="http://www.w3.org/2000/svg">
<path d="M22.3184 49.7578L16.377 56.1562V72H4.95117V16.5469H16.377V41.6836L21.4043 34.79L35.5342 16.5469H49.5879L29.8975 41.1885L50.1592 72H36.5625L22.3184 49.7578ZM98.7949 45.5303C98.7949 50.9893 97.8301 55.7754 95.9004 59.8887C93.9707 64.002 91.2031 67.1758 87.5977 69.4102C84.0176 71.6445 79.9043 72.7617 75.2578 72.7617C70.6621 72.7617 66.5615 71.6572 62.9561 69.4482C59.3506 67.2393 56.5576 64.0908 54.5771 60.0029C52.5967 55.8896 51.5938 51.167 51.5684 45.835V43.0928C51.5684 37.6338 52.5459 32.835 54.501 28.6963C56.4814 24.5322 59.2617 21.3457 62.8418 19.1367C66.4473 16.9023 70.5605 15.7852 75.1816 15.7852C79.8027 15.7852 83.9033 16.9023 87.4834 19.1367C91.0889 21.3457 93.8691 24.5322 95.8242 28.6963C97.8047 32.835 98.7949 37.6211 98.7949 43.0547V45.5303ZM87.2168 43.0166C87.2168 37.2021 86.1758 32.7842 84.0938 29.7627C82.0117 26.7412 79.041 25.2305 75.1816 25.2305C71.3477 25.2305 68.3896 26.7285 66.3076 29.7246C64.2256 32.6953 63.1719 37.0625 63.1465 42.8262V45.5303C63.1465 51.1924 64.1875 55.585 66.2695 58.708C68.3516 61.8311 71.3477 63.3926 75.2578 63.3926C79.0918 63.3926 82.0371 61.8945 84.0938 58.8984C86.1504 55.877 87.1914 51.4844 87.2168 45.7207V43.0166ZM127.626 51.7002H118.523V72H107.098V16.5469H127.702C134.253 16.5469 139.306 18.0068 142.86 20.9268C146.415 23.8467 148.192 27.9727 148.192 33.3047C148.192 37.0879 147.367 40.249 145.717 42.7881C144.092 45.3018 141.616 47.3076 138.29 48.8057L150.287 71.4668V72H138.023L127.626 51.7002ZM118.523 42.4453H127.74C130.609 42.4453 132.831 41.7217 134.405 40.2744C135.979 38.8018 136.767 36.7832 136.767 34.2188C136.767 31.6035 136.018 29.5469 134.52 28.0488C133.047 26.5508 130.774 25.8018 127.702 25.8018H118.523V42.4453ZM200.446 53.5283C200.015 59.4951 197.806 64.1924 193.819 67.6201C189.858 71.0479 184.628 72.7617 178.128 72.7617C171.019 72.7617 165.42 70.375 161.332 65.6016C157.27 60.8027 155.238 54.2266 155.238 45.873V42.4834C155.238 37.1514 156.178 32.4541 158.057 28.3916C159.936 24.3291 162.614 21.2188 166.093 19.0605C169.597 16.877 173.659 15.7852 178.28 15.7852C184.679 15.7852 189.833 17.499 193.743 20.9268C197.653 24.3545 199.913 29.166 200.522 35.3613H189.097C188.817 31.7812 187.814 29.1914 186.088 27.5918C184.387 25.9668 181.784 25.1543 178.28 25.1543C174.472 25.1543 171.615 26.5254 169.711 29.2676C167.832 31.9844 166.867 36.2119 166.816 41.9502V46.1396C166.816 52.1318 167.718 56.5117 169.521 59.2793C171.349 62.0469 174.218 63.4307 178.128 63.4307C181.657 63.4307 184.285 62.6309 186.012 61.0312C187.764 59.4062 188.767 56.9053 189.021 53.5283H200.446ZM253.081 72H241.655V48.2344H219.375V72H207.949V16.5469H219.375V39.0176H241.655V16.5469H253.081V72ZM275.247 72H263.821V16.5469H275.247V72Z" transform="translate(0 39)" fill="black"/>
<path d="M306.973 34.9043L318.627 16.5469H334.09L314.361 44.5781L325.216 72H310.781L304.688 53.2998L292.729 72H277.151L297.337 43.5117L286.825 16.5469H301.107L306.973 34.9043Z" transform="translate(0 39)" fill="#DF0303"/>
</svg>
